<svg data-v-423bf9ae="" xmlns="http://www.w3.org/2000/svg" viewBox="0 0 442 90" class="iconLeft"><!----><defs data-v-423bf9ae=""><linearGradient data-v-423bf9ae="" gradientTransform="rotate(25)" id="9fa80fea-2105-49dd-a2fa-a986f46df7cf" x1="0%" y1="0%" x2="100%" y2="0%"><stop data-v-423bf9ae="" offset="0%" style="stop-color: rgb(13, 33, 117); stop-opacity: 1;"></stop><stop data-v-423bf9ae="" offset="100%" style="stop-color: rgb(31, 30, 251); stop-opacity: 1;"></stop></linearGradient></defs><!----><g data-v-423bf9ae="" id="ce46ed9c-e714-4464-af64-c676fcc155d9" fill="#ffffff" transform="matrix(5.212858280353729,0,0,5.212858280353729,95.34118492980647,1.8635958024245127)"><path d="M6.02 14.03L4.63 12.46L4.47 12.46L4.47 12.46Q2.56 12.46 1.52 11.22L1.52 11.22L1.52 11.22Q0.48 9.98 0.48 7.49L0.48 7.49L0.48 7.49Q0.48 5.00 1.52 3.76L1.52 3.76L1.52 3.76Q2.56 2.52 4.47 2.52L4.47 2.52L4.47 2.52Q6.37 2.52 7.41 3.76L7.41 3.76L7.41 3.76Q8.46 5.00 8.46 7.49L8.46 7.49L8.46 7.49Q8.46 9.25 7.92 10.39L7.92 10.39L7.92 10.39Q7.38 11.54 6.37 12.05L6.37 12.05L8.22 14.03L6.02 14.03ZM4.47 10.92L4.47 10.92Q5.52 10.92 6.06 10.12L6.06 10.12L6.06 10.12Q6.61 9.31 6.61 7.84L6.61 7.84L6.61 7.14L6.61 7.14Q6.61 5.67 6.06 4.86L6.06 4.86L6.06 4.86Q5.52 4.06 4.47 4.06L4.47 4.06L4.47 4.06Q3.42 4.06 2.87 4.86L2.87 4.86L2.87 4.86Q2.32 5.67 2.32 7.14L2.32 7.14L2.32 7.84L2.32 7.84Q2.32 9.31 2.87 10.12L2.87 10.12L2.87 10.12Q3.42 10.92 4.47 10.92L4.47 10.92ZM13.08 12.46L13.08 12.46Q11.51 12.46 10.65 11.64L10.65 11.64L10.65 11.64Q9.79 10.82 9.79 9.28L9.79 9.28L9.79 2.69L11.58 2.69L11.58 9.23L11.58 9.23Q11.58 10.05 11.97 10.49L11.97 10.49L11.97 10.49Q12.36 10.92 13.08 10.92L13.08 10.92L13.08 10.92Q13.79 10.92 14.19 10.49L14.19 10.49L14.19 10.49Q14.59 10.05 14.59 9.23L14.59 9.23L14.59 2.69L16.38 2.69L16.38 9.28L16.38 9.28Q16.38 10.82 15.51 11.64L15.51 11.64L15.51 11.64Q14.64 12.46 13.08 12.46L13.08 12.46ZM21.69 12.46L21.69 12.46Q19.78 12.46 18.74 11.22L18.74 11.22L18.74 11.22Q17.70 9.98 17.70 7.49L17.70 7.49L17.70 7.49Q17.70 5.00 18.74 3.76L18.74 3.76L18.74 3.76Q19.78 2.52 21.69 2.52L21.69 2.52L21.69 2.52Q23.59 2.52 24.63 3.76L24.63 3.76L24.63 3.76Q25.68 5.00 25.68 7.49L25.68 7.49L25.68 7.49Q25.68 9.98 24.63 11.22L24.63 11.22L24.63 11.22Q23.59 12.46 21.69 12.46L21.69 12.46ZM21.69 10.92L21.69 10.92Q22.74 10.92 23.28 10.12L23.28 10.12L23.28 10.12Q23.83 9.31 23.83 7.84L23.83 7.84L23.83 7.14L23.83 7.14Q23.83 5.67 23.28 4.86L23.28 4.86L23.28 4.86Q22.74 4.06 21.69 4.06L21.69 4.06L21.69 4.06Q20.64 4.06 20.09 4.86L20.09 4.86L20.09 4.86Q19.54 5.67 19.54 7.14L19.54 7.14L19.54 7.84L19.54 7.84Q19.54 9.31 20.09 10.12L20.09 10.12L20.09 10.12Q20.64 10.92 21.69 10.92L21.69 10.92ZM28.77 12.29L28.77 4.28L26.39 4.28L26.39 2.69L32.94 2.69L32.94 4.28L30.56 4.28L30.56 12.29L28.77 12.29ZM33.87 12.29L33.87 2.69L35.66 2.69L35.66 12.29L33.87 12.29ZM39.28 12.29L36.36 2.69L38.21 2.69L40.22 9.56L40.28 9.56L42.27 2.69L44.02 2.69L41.09 12.29L39.28 12.29ZM44.02 12.29L47.11 2.69L49.20 2.69L52.29 12.29L50.46 12.29L49.87 10.40L46.33 10.40L45.75 12.29L44.02 12.29ZM46.82 8.81L49.38 8.81L48.41 5.60L48.41 5.60Q48.31 5.29 48.23 4.86L48.23 4.86L48.23 4.86Q48.15 4.42 48.13 4.30L48.13 4.30L48.08 4.30L48.08 4.30Q48.05 4.44 47.96 4.88L47.96 4.88L47.96 4.88Q47.88 5.32 47.80 5.60L47.80 5.60L46.82 8.81ZM54.92 12.29L54.92 4.28L52.54 4.28L52.54 2.69L59.09 2.69L59.09 4.28L56.71 4.28L56.71 12.29L54.92 12.29ZM60.16 12.29L60.16 2.69L66.28 2.69L66.28 4.28L61.95 4.28L61.95 6.58L65.66 6.58L65.66 8.18L61.95 8.18L61.95 10.70L66.36 10.70L66.36 12.29L60.16 12.29Z"></path></g><!----><g data-v-423bf9ae="" id="d89688ae-545d-45e4-955a-c0895ade41be" transform="matrix(1.0215664195094967,0,0,1.0215664195094967,-11.178319367326566,-5.127241897730109)" stroke="none" fill="#ffffff"><circle cx="50" cy="16.8" r="9.8"></circle><path d="M43.5 41.9h21C64.1 34.2 57.7 28 50 28c-7.8 0-14.2 6.1-14.5 13.9h8zM32.4 18.7c0-6.3 6.4-6.4 6.4-6.4s-6.4-.2-6.4-6.4c0 6.3-6.4 6.4-6.4 6.4s6.4.2 6.4 6.4zM20.4 29.5c0-3.8 3.9-3.9 3.9-3.9s-3.9-.1-3.9-3.9c0 3.8-3.9 3.9-3.9 3.9s3.9.1 3.9 3.9zM21.4 17.2c0-2.8 2.9-2.9 2.9-2.9s-2.9-.1-2.9-2.9c0 2.8-2.9 2.9-2.9 2.9s2.9.2 2.9 2.9zM35.1 59.4c.7 2.8 2.1 7 5.2 8.6l-2.1-8.6h-3.1zM59.3 68.2c3.7-1.5 5.2-6.7 5.6-8.7h-3.4l-2.2 8.7z"></path><path d="M56.5 45.1h-33v-6.3l1.6-2.1c1.2.2 2.4-.2 3.3-1.1l7.7-8.5c1.4-1.5 1.3-3.7-.2-5.1s-3.7-1.3-5.1.2l-7.7 8.5c-1.1 1.3-1.3 3-.6 4.3l-2.2 2.8v7.3h-8.4V61L22 68.7V94h56V68.7L88.1 61V45.1H56.5zm1.9 26.3c-.3.7-1 1.6-1.6 2l-4.3 2.3v1.4c0 1.3.2 2.6.5 3.9h.3c1.2 0 2.2.8 2.5 2 .6.3.9.9.9 1.6 0 1-.8 1.8-1.8 1.8h-10c-1 0-1.8-.8-1.8-1.8 0-.7.4-1.2.9-1.6.2-1.1 1.2-2 2.5-2h.2c.4-1.6.6-3 .6-4.5v-.4-.3l-4.5-2.4c-.7-.4-1.4-1.2-1.7-2.1-7.3-1.4-8.8-11.1-9.1-13.1-.1-.3 0-.7.2-1.1.3-.4.7-.5 1.1-.5h3.3c-.3-.4-.5-1-.5-1.6 0-1.2.8-2.2 1.9-2.2h23.5c1 0 1.9 1 1.9 2.2 0 .6-.2 1.2-.5 1.6h3.7c.5 0 .8.3 1.1.5l.1.1c.2.3.3.6.3 1-.1 0-1.3 11.9-9.7 13.2z"></path><path d="M86.3 18.1l-9.7-9.7c-.5-.5-1.3-.5-1.7 0l-9.7 9.7c-.8.8-.2 2.1.9 2.1h5v19.2c0 .8.6 1.4 1.4 1.4h6.6c.8 0 1.4-.6 1.4-1.4V20.2h5c1.1 0 1.6-1.3.8-2.1z"></path></g><!----></svg>